<?xml version="1.0" encoding="utf-8"?>
<!-- Generator: Adobe Illustrator 14.0.0, SVG Export Plug-In . SVG Version: 6.00 Build 43363)  -->
<!DOCTYPE svg PUBLIC "-//W3C//DTD SVG 1.1//EN" "http://www.w3.org/Graphics/SVG/1.1/DTD/svg11.dtd">
<svg version="1.1" id="Layer_1" xmlns="http://www.w3.org/2000/svg" xmlns:xlink="http://www.w3.org/1999/xlink" x="0px" y="0px"
	 width="638.14px" height="648px" viewBox="-23 109.445 638.14 648" enable-background="new -23 109.445 638.14 648"
	 xml:space="preserve">
<g>
	<path fill="#FFFFFF" d="M295,115.89c100.046-0.22,170.591,39.673,225,93c47.975,47.021,93.002,120.431,93,225
		c0,98.566-39.203,171.205-93,225c-51.535,51.537-127.138,91.875-224,93c-97.575,1.133-174.084-41.742-225-93
		c-53.156-53.514-92.5-125.732-94-224c-1.527-100.024,44.807-176.807,93-225C121.063,158.827,191.395,116.118,295,115.89z
		 M67,223.89c-48.068,51.53-85.207,128.188-81,228c3.946,93.641,47.596,161.279,100,209c53.985,49.158,128.5,87.104,228,82
		c92.9-4.766,160.35-47.283,209-100c48.334-52.373,87.381-126.332,81-226c-5.943-92.862-45.826-163.62-98-211
		c-51.836-47.076-129.877-86.859-229-81C180.507,130.594,115.722,171.659,67,223.89z"/>
	<path fill="#FFFFFF" d="M358,412.89c-3.059,0.726-2.939-1.725-6-1c1.801,2.201,2.682,5.32,5,7c-0.445,25.157-28.025,19.647-35,4
		C319.517,402.491,350.841,398.489,358,412.89z M352,422.89c5.224-16.318-27.918-18.695-20,4
		C338.986,433.109,349.962,429.257,352,422.89z M324,422.89c1.987,0.014,1.272,2.729,4,2c-0.728-2.271,1.803-7.802-2-7
		C326.156,420.378,324.429,420.986,324,422.89z"/>
	<path fill="#FFFFFF" d="M337,422.89C340.593,401.167,356.203,432.511,337,422.89L337,422.89z"/>
	<path fill="#FFFFFF" d="M354,498.89c-10.846,13.508-21.224,24.908-19,47c1.142,11.322,6.893,23.529,10,35
		c1.651,6.094,2.619,12.152,5,17c2.244,4.562,8.596,8.297,5,13c-8.271-4.082-12.885-16.688-16-28c-8.457-30.719-17.461-65.881,12-86
		C352.313,497.244,352.574,498.652,354,498.89z"/>
	<path fill="#FFFFFF" d="M356,508.89c0.668,0,1.334,0,2,0c4.39,10.205,12.285,14.73,16,26c3.209,9.729-0.678,20.115,2,31
		c2.211,8.979,13.902,12.418,17,22c6.053,18.719-6.478,43.08-23,43c-22.162-0.107-32-31.881-36-50c11.812,13.82,13.162,44.998,35,46
		c14.58,0.668,25.176-19.734,21-36c-2.385-9.297-16.443-13.906-18-25c-1.153-8.234,0.67-15.146,0-21
		C370.126,528.513,360.197,524.644,356,508.89z"/>
	<path fill="#FFFFFF" d="M391,651.89c-3.207,0.479-9.852,6.133-14,9c-26.192-21.422-57.945-55.172-61-101
		c-2.963-44.477,18.031-76.105,49-92c-11.701-12.662-2.291-28.004,19-24c3.847-11.488,12.682-17.986,26-20
		c-4.092-15.564-20.026-8.491-34-13c-5.408-1.746-10.447-9.03-15-12c-29.373-19.154-68.359,1.25-87,22
		c11.278,5.813,6.294,24.524-2,30c8.589,6.639,17.458,9.021,25,17c21.003,22.219,20.891,66.25,9,98c-4.199,1.209-7.662-3.852-13,0
		c-25.414-14.605-66.747-29.012-67-68c-0.14-21.547,13.812-38.148,29-49c5.828,4.078,2.792,11.025,3,17
		c0.698,20.1,8.481,38.584,23,46c4.741-17.592-18.288-20.887-15-37c4.917-0.25,2.033,7.301,5,9c7.837,6.844,19.726,21.016,11,35
		c-18.101-8.898-27.472-26.527-29-52c-24.374,41.07,17.487,80.4,48,93c18.188-40.402,5.191-99.604-37-104
		c5.458-7.676,20.562-21.604,8-32c-5.208-0.33-6.217,7.701-10,3c0.667-4.811,2.138-3.611,1-9c2.319-0.318,3.839,0.161,5,1
		c20.167-27.947,83.863-49.635,110-13c3.668,0,7.334,0,11,0c-14.035-23.944-48.951-34.326-87-28c7.631,3.655,22.391-3.861,29,2
		c-7.127,5.6-16.719,3.236-24,4c-24.333,2.553-44.554,6.366-64,18c-57.913,34.649-122.152,82.083-158,142
		c-3.676,6.145-6.233,21.008-15,14c33.57-68.967,82.213-131.775,162-162c33.867-12.829,59.038-31.704,106-28
		c-41.326-8.386-82.763,5.708-119,8c-64.445,4.077-95.823-38.582-88-109c31.251-10.268,81.408-6.074,115-1
		c-8.433-17.919-16.98-35.039-28-51c-3.166-4.586-11.191-8.867-8-16c38.038,11.629,62.471,36.862,93,56
		c-0.301-21.364-3.732-39.6-6-59c-1.498-5.071-6.267-7.652-1-12c14.936,4.93,24.972,19.686,34,33c9.283,13.689,17.574,29,23,45
		c7.58-14.372,18.754-41.709,18-62c-0.235-6.397-5.815-10.432,1-14c10.496,8.274,16.433,22.687,21,37
		c4.664,14.609,7.019,31.874,9,49c7.508-13.159,11.629-29.705,16-46c-1.062-6.896-9.444-9.041-2-14c6.723,0.297,11.047,9.629,14,17
		c6.008,14.989,7.494,39.523,5,61c8.008-4.333,16.914-16.417,24-25c-1.381-5.207-7.174-9.914,0-13c23.688,13.897,25.355,67.153-2,78
		c15.68,29.117,10.072,80.91-14,96c14.91,9.092,25.082,22.918,29,43c-19.494,3.17-39.662,5.67-59,9
		c24.463,14.658,46.037,31.281,42,73c-4.371,45.174-40.287,83.838-60,107C392.3,657.857,388.283,654.031,391,651.89z M308,254.89
		c0.572,6.06,5.207,10.424-2,13c-26.814-19.518-53.341-39.324-83-56c9.016,18.984,21.936,34.064,29,55
		c7.924,1.409,17.075,1.592,23,5c-0.389,2.611-0.513,5.486-2,7c-39.214-6.825-93.424-15.96-135-5c-2.76,60.006,21.374,94.233,71,94
		c32.75-0.153,69.552-11.076,105-11c37.535,0.082,80.861,7.946,81,50c9.91,2.758,17.44,7.894,22,16c6.615-2.247,12.682,1.029,20,1
		c23.641-13.136,28.941-56.777,18-86c-2.621-7.003-10.002-13.254-7-20c3.582-3.286,2.188,4.462,6,4c16.412-7.895,20.996-39.841,7-54
		c-8.357,13.308-21.855,21.477-30,35c-3.055,0.724-3.645-1.021-6-1c2.926-22.617,6.336-54.951-5-71
		c-3.883,20.782-12.299,37.034-19,55c-2.332,0-4.666,0-7,0c-0.646-32.021-6.543-58.789-18-80c-3.373,20.207-9.058,40.607-16,56
		c-2.361,5.238-3.914,13.77-11,14c-10.385-30.947-24.39-58.276-46-78C305.846,214.511,306.445,238.366,308,254.89z M124,480.89
		c-0.39,1.086-1.2,2.4,0,1c28.811-27.188,60.951-51.049,94-74C178.602,424.158,149.41,450.632,124,480.89z M438,429.89
		c-17.651-4.902-42.994-2.371-48,14c22.717,2.619,45.809,10.189,66,12c-11.797,0.229-19.848-8.609-30-12
		c-8.015-2.678-17.729-0.859-25-7c5.236-4.518,14.267-0.734,21,1c12.061,3.107,20.826,11.678,32,11
		c-4.729-7.568-11.785-13.643-22-16c-3.348-0.773-9.682,2.695-11-3C425.613,426.646,434.234,432.375,438,429.89z M461,452.89
		c-0.758-3.279-4-9.279-6-8C457.658,446.9,457.425,451.798,461,452.89z M368,453.89c0.17,7.496,7.664,7.67,9,14
		c-3.847,7.438-5.056,1.822-11,4c-13.625,4.992-24.938,19.732-32,32c-32.781,56.955,7.945,126.055,43,151
		c13.312-9.988,27.211-20.551,38-35c10.033-13.438,22.023-29.701,24-49c3.691-36.035-17.055-57.643-33-73
		c-3.613-3.482-11.66-7.664-10-14c22.562,14.117,43.254,38.738,49,73c9.842-47.836-22.967-69.459-58-79
		c-0.578-3.246,0.683-4.652,1-7c20.685,6.891,42.906-3.15,65-4C429.507,458.671,397.485,449.591,368,453.89z M460,458.89
		c1.498-0.172,3.691,0.357,4-1c-1.889-0.111-0.693-3.307-3-3C461.224,456.781,459.873,457.095,460,458.89z M258,534.89
		c-14.655-11.855-21.126-40.896-15-62C225.521,492.599,240.348,529.962,258,534.89z"/>
	<path fill="#FFFFFF" d="M279,133.89c95.951-7.095,167.941,30.861,217,75c48.16,43.327,89.9,111.341,92,199
		c2.244,93.653-31.314,162.772-77,215c-43.801,50.078-109.275,92.086-194,97c-92.459,5.361-163.286-28.475-215-75
		c-51.571-46.396-87.93-109.447-94-197c-3.306-47.68,8.259-89.086,22-124c27.576-70.065,69.575-122.143,135-157
		C196.772,149.962,235.176,137.13,279,133.89z M421,164.89c-47.449-22.486-112.281-34.058-174-22
		c-55.562,10.855-104.361,37.65-135,70c43.285-33.728,93.127-62.075,164-66c92.394-5.117,162.302,28.512,213,74
		c52.404,47.02,84.467,112.76,94,195C576.417,289.817,512.906,208.443,421,164.89z M172,179.89c-32.791,16.166-58.037,35.01-80,59
		c-42.248,46.148-79.646,108.06-72,203c6.628,82.303,42.367,141.297,91,186c47.907,44.035,118.927,77.863,204,74
		c84.959-3.859,143.936-40.936,190-87c45.479-45.479,78.172-112.982,72-201c-5.752-82.052-44.498-144.329-90-187
		c-45.277-42.464-117.263-79.589-203-75C242.573,154.107,202.069,165.065,172,179.89z M174,687.89
		c47.667,22.555,111.051,34.721,173,23c56.558-10.699,102.299-36.74,138-68c-2.146-1.828-4.73,1.105-6,2
		c-38.473,27.098-76.154,48.955-132,58c-61.224,9.914-124.128-1.379-171-24c-89.654-43.271-149.306-125.566-163-242
		C19.732,562.47,82.306,644.503,174,687.89z"/>
</g>
</svg>
